<?xml version="1.0" encoding="UTF-8" standalone="no"?>
<svg
   width="16"
   height="16"
   version="1.1"
   id="svg1"
   sodipodi:docname="DrawablePath2D.svg"
   xml:space="preserve"
   inkscape:version="1.3.2 (091e20e, 2023-11-25, custom)"
   xmlns:inkscape="http://www.inkscape.org/namespaces/inkscape"
   xmlns:sodipodi="http://sodipodi.sourceforge.net/DTD/sodipodi-0.dtd"
   xmlns="http://www.w3.org/2000/svg"
   xmlns:svg="http://www.w3.org/2000/svg"><defs
     id="defs1" /><sodipodi:namedview
     id="namedview1"
     pagecolor="#505050"
     bordercolor="#ffffff"
     borderopacity="1"
     inkscape:showpageshadow="0"
     inkscape:pageopacity="0"
     inkscape:pagecheckerboard="1"
     inkscape:deskcolor="#505050"
     inkscape:zoom="45.254834"
     inkscape:cx="7.236796"
     inkscape:cy="6.9716309"
     inkscape:current-layer="svg1" /><path
     id="path1"
     style="color:#000000;fill:#8da5f3;stroke-linecap:round;stroke-linejoin:round;-inkscape-stroke:none"
     d="M 12.007812,1.5019531 C 11.361549,1.4942372 10.706208,1.7931894 10.294922,2.4824219 8.8288054,2.6144492 7.7390741,3.1437768 7.0234375,3.9648438 6.0924195,5.0336435 5.8202842,6.3490867 5.578125,7.5273438 L 4.5097656,11.146484 2.7050781,8.7402344 C 2.3734436,8.2984142 1.746378,8.2092084 1.3046875,8.5410156 0.86410905,8.8725261 0.77499109,9.4980994 1.1054688,9.9394531 l 3,3.9999999 c 0.4936652,0.656099 1.5239157,0.470654 1.7578124,-0.316406 L 7.5039063,8.0644532 8.192645,5.7987177 C 8.2524775,5.6638417 8.3811132,5.4516369 8.53125,5.2792969 8.8772552,4.8805828 9.3691072,4.5692373 10.269531,4.4707031 11.220155,6.171195 13.791802,5.6477381 14.001953,3.7109375 14.137852,2.3801588 13.084918,1.514813 12.007812,1.5019531 Z"
     sodipodi:nodetypes="sccccccccccccccs" /></svg>
